<svg version="1.1" id="Layer_1" xmlns="http://www.w3.org/2000/svg" xmlns:xlink="http://www.w3.org/1999/xlink" x="0px" y="0px"
	 width="100%" viewBox="0 0 512 512" enable-background="new 0 0 512 512" xml:space="preserve">
<path fill="#000000" opacity="1.000000" stroke="none" 
	d="
M513.000000,235.000000 
	C513.000000,249.354233 513.000000,263.708466 512.596558,278.691162 
	C510.231140,291.979431 508.867523,304.768066 506.175018,317.270508 
	C501.455170,339.186859 492.960938,359.719818 482.298492,379.486603 
	C472.542267,397.573456 460.824951,414.210541 446.991791,429.233978 
	C438.182678,438.801056 428.268341,447.403473 418.435852,455.963226 
	C402.272766,470.034180 383.989716,480.876221 364.575134,489.851227 
	C341.038910,500.731598 316.540009,508.230621 290.680878,511.036407 
	C286.762360,511.461578 282.892426,512.334290 279.000000,513.000000 
	C264.645782,513.000000 250.291550,513.000000 235.308868,512.596558 
	C225.456604,511.120270 216.100479,510.695648 207.035263,508.845673 
	C185.137253,504.376801 164.016373,497.296478 143.941513,487.408783 
	C122.532051,476.863800 102.806465,463.639801 85.212273,447.547821 
	C70.307114,433.915314 56.857033,418.892700 45.470314,402.065948 
	C34.175903,385.375671 24.681969,367.794403 17.485603,348.980713 
	C11.852645,334.254272 7.319791,319.230438 4.932540,303.583160 
	C3.979166,297.334229 2.331577,291.191223 1.000001,285.000000 
	C1.000000,266.645782 1.000000,248.291550 1.386770,229.330872 
	C2.856441,221.518265 3.583403,214.236801 5.088576,207.119919 
	C9.715297,185.243515 16.561260,164.036682 26.576378,144.030182 
	C36.581573,124.043503 48.793919,105.502571 63.668461,88.640778 
	C78.292892,72.062508 94.469231,57.355263 112.671654,44.932613 
	C128.475235,34.147099 145.300140,25.229252 163.197678,18.248610 
	C182.493866,10.722448 202.268158,5.406270 222.833649,2.972095 
	C226.909805,2.489636 230.945602,1.666197 235.000000,1.000000 
	C249.354233,1.000000 263.708466,1.000000 278.691132,1.403420 
	C291.979370,3.768808 304.768005,5.132386 317.270447,7.824902 
	C339.186798,12.544786 359.719788,21.039032 379.486572,31.701464 
	C397.573425,41.457718 414.210510,53.174999 429.233948,67.008217 
	C438.801025,75.817345 447.403473,85.731682 455.963257,95.564117 
	C470.034271,111.727203 480.876221,130.010300 489.851257,149.424850 
	C500.731628,172.961090 508.230530,197.460022 511.036316,223.319138 
	C511.461517,227.237640 512.334290,231.107590 513.000000,235.000000 
M218.344727,51.997295 
	C216.269882,52.331242 214.183533,52.606236 212.121964,53.008308 
	C192.884659,56.760201 174.769348,64.002975 157.781967,73.313782 
	C138.423752,83.924034 120.436584,96.864922 105.805939,113.764061 
	C98.660500,122.017410 91.389381,130.246231 85.104057,139.142441 
	C71.861237,157.886246 62.279575,178.472061 55.946877,200.593079 
	C51.179008,217.247925 48.650738,234.226791 48.070793,251.471008 
	C47.573776,266.249481 49.380650,280.838501 51.812149,295.463806 
	C55.421726,317.175232 63.153755,337.416779 73.466026,356.453827 
	C84.059441,376.009827 97.289978,394.017456 114.321091,408.736389 
	C122.442116,415.754883 130.701233,422.679993 139.401779,428.947845 
	C157.930771,442.296051 178.459549,451.650787 200.382080,458.007629 
	C217.168625,462.875214 234.328766,465.392456 251.749908,465.910278 
	C258.816772,466.120331 265.933624,465.564026 272.991180,464.941559 
	C281.749542,464.169067 290.608063,463.622345 299.178955,461.817596 
	C319.050385,457.633362 338.103760,450.654419 355.836334,440.854675 
	C375.033844,430.245392 392.478180,417.155029 407.658264,401.020844 
	C422.677643,385.057465 434.890900,367.399139 444.736816,347.846649 
	C457.585693,322.330811 463.945129,295.203308 465.905975,266.965912 
	C467.117340,249.521606 465.180084,232.126343 461.842438,215.035385 
	C457.917175,194.935257 450.653564,175.749390 440.776276,157.914688 
	C430.160461,138.746506 417.041046,121.260094 400.827515,106.140587 
	C385.410889,91.764183 368.505402,79.849075 349.771484,70.207367 
	C323.783905,56.832474 296.093384,50.048733 267.182861,48.166386 
	C256.501282,47.470909 245.679337,48.407604 234.955139,49.112938 
	C229.673096,49.460335 224.467880,50.976147 218.344727,51.997295 
z"/>
<path fill="#FFFFFF" opacity="1.000000" stroke="none" 
	d="
M513.000000,234.531342 
	C512.334290,231.107590 511.461517,227.237640 511.036316,223.319138 
	C508.230530,197.460022 500.731628,172.961090 489.851257,149.424850 
	C480.876221,130.010300 470.034271,111.727203 455.963257,95.564117 
	C447.403473,85.731682 438.801025,75.817345 429.233948,67.008217 
	C414.210510,53.174999 397.573425,41.457718 379.486572,31.701464 
	C359.719788,21.039032 339.186798,12.544786 317.270447,7.824902 
	C304.768005,5.132386 291.979370,3.768808 279.159790,1.403420 
	C356.927032,1.000000 434.854095,1.000000 513.000000,1.000000 
	C513.000000,78.687424 513.000000,156.375061 513.000000,234.531342 
z"/>
<path fill="#FFFFFF" opacity="1.000000" stroke="none" 
	d="
M279.468658,513.000000 
	C282.892426,512.334290 286.762360,511.461578 290.680878,511.036407 
	C316.540009,508.230621 341.038910,500.731598 364.575134,489.851227 
	C383.989716,480.876221 402.272766,470.034180 418.435852,455.963226 
	C428.268341,447.403473 438.182678,438.801056 446.991791,429.233978 
	C460.824951,414.210541 472.542267,397.573456 482.298492,379.486603 
	C492.960938,359.719818 501.455170,339.186859 506.175018,317.270508 
	C508.867523,304.768066 510.231140,291.979431 512.596558,279.159821 
	C513.000000,356.927032 513.000000,434.854095 513.000000,513.000000 
	C435.312561,513.000000 357.624939,513.000000 279.468658,513.000000 
z"/>
<path fill="#FFFFFF" opacity="1.000000" stroke="none" 
	d="
M234.531342,1.000000 
	C230.945602,1.666197 226.909805,2.489636 222.833649,2.972095 
	C202.268158,5.406270 182.493866,10.722448 163.197678,18.248610 
	C145.300140,25.229252 128.475235,34.147099 112.671654,44.932613 
	C94.469231,57.355263 78.292892,72.062508 63.668461,88.640778 
	C48.793919,105.502571 36.581573,124.043503 26.576378,144.030182 
	C16.561260,164.036682 9.715297,185.243515 5.088576,207.119919 
	C3.583403,214.236801 2.856441,221.518265 1.386770,228.862213 
	C1.000000,153.072006 1.000000,77.144012 1.000000,1.000000 
	C78.687431,1.000000 156.375061,1.000000 234.531342,1.000000 
z"/>
<path fill="#FFFFFF" opacity="1.000000" stroke="none" 
	d="
M1.000001,285.468658 
	C2.331577,291.191223 3.979166,297.334229 4.932540,303.583160 
	C7.319791,319.230438 11.852645,334.254272 17.485603,348.980713 
	C24.681969,367.794403 34.175903,385.375671 45.470314,402.065948 
	C56.857033,418.892700 70.307114,433.915314 85.212273,447.547821 
	C102.806465,463.639801 122.532051,476.863800 143.941513,487.408783 
	C164.016373,497.296478 185.137253,504.376801 207.035263,508.845673 
	C216.100479,510.695648 225.456604,511.120270 234.840210,512.596558 
	C157.073914,513.000000 79.147827,513.000000 1.000000,513.000000 
	C1.000000,437.312592 1.000000,361.624939 1.000001,285.468658 
z"/>
<path fill="#FFFFFF" opacity="1.000000" stroke="none" 
	d="
M218.786316,51.980263 
	C224.467880,50.976147 229.673096,49.460335 234.955139,49.112938 
	C245.679337,48.407604 256.501282,47.470909 267.182861,48.166386 
	C296.093384,50.048733 323.783905,56.832474 349.771484,70.207367 
	C368.505402,79.849075 385.410889,91.764183 400.827515,106.140587 
	C417.041046,121.260094 430.160461,138.746506 440.776276,157.914688 
	C450.653564,175.749390 457.917175,194.935257 461.842438,215.035385 
	C465.180084,232.126343 467.117340,249.521606 465.905975,266.965912 
	C463.945129,295.203308 457.585693,322.330811 444.736816,347.846649 
	C434.890900,367.399139 422.677643,385.057465 407.658264,401.020844 
	C392.478180,417.155029 375.033844,430.245392 355.836334,440.854675 
	C338.103760,450.654419 319.050385,457.633362 299.178955,461.817596 
	C290.608063,463.622345 281.749542,464.169067 272.991180,464.941559 
	C265.933624,465.564026 258.816772,466.120331 251.749908,465.910278 
	C234.328766,465.392456 217.168625,462.875214 200.382080,458.007629 
	C178.459549,451.650787 157.930771,442.296051 139.401779,428.947845 
	C130.701233,422.679993 122.442116,415.754883 114.321091,408.736389 
	C97.289978,394.017456 84.059441,376.009827 73.466026,356.453827 
	C63.153755,337.416779 55.421726,317.175232 51.812149,295.463806 
	C49.380650,280.838501 47.573776,266.249481 48.070793,251.471008 
	C48.650738,234.226791 51.179008,217.247925 55.946877,200.593079 
	C62.279575,178.472061 71.861237,157.886246 85.104057,139.142441 
	C91.389381,130.246231 98.660500,122.017410 105.805939,113.764061 
	C120.436584,96.864922 138.423752,83.924034 157.781967,73.313782 
	C174.769348,64.002975 192.884659,56.760201 212.121964,53.008308 
	C214.183533,52.606236 216.269882,52.331242 218.786316,51.980263 
M387.038147,198.576111 
	C396.052765,189.746628 395.007355,174.212997 386.314240,166.045609 
	C375.770599,156.139633 361.715973,156.850235 351.630981,166.917435 
	C308.236664,210.235062 264.915100,253.625549 221.517624,297.038940 
	C202.367401,277.880859 183.322876,258.753357 164.180435,239.724350 
	C158.475525,234.053253 151.960190,230.458679 143.354095,230.878723 
	C133.406876,231.364227 126.853600,236.270859 122.766701,244.807526 
	C119.012932,252.648346 120.893616,264.306732 126.816002,270.255341 
	C152.677719,296.231537 178.521713,322.227631 204.639618,347.944885 
	C210.457703,353.673706 217.743088,356.088959 226.381943,354.166077 
	C232.124207,352.887939 236.488159,349.933044 240.384201,346.048920 
	C274.367493,312.169464 308.290131,278.229126 342.206909,244.282974 
	C357.157745,229.319183 372.053406,214.300232 387.038147,198.576111 
z"/>
<path fill="#000000" opacity="1.000000" stroke="none" 
	d="
M387.006134,198.941223 
	C372.053406,214.300232 357.157745,229.319183 342.206909,244.282974 
	C308.290131,278.229126 274.367493,312.169464 240.384201,346.048920 
	C236.488159,349.933044 232.124207,352.887939 226.381943,354.166077 
	C217.743088,356.088959 210.457703,353.673706 204.639618,347.944885 
	C178.521713,322.227631 152.677719,296.231537 126.816002,270.255341 
	C120.893616,264.306732 119.012932,252.648346 122.766701,244.807526 
	C126.853600,236.270859 133.406876,231.364227 143.354095,230.878723 
	C151.960190,230.458679 158.475525,234.053253 164.180435,239.724350 
	C183.322876,258.753357 202.367401,277.880859 221.517624,297.038940 
	C264.915100,253.625549 308.236664,210.235062 351.630981,166.917435 
	C361.715973,156.850235 375.770599,156.139633 386.314240,166.045609 
	C395.007355,174.212997 396.052765,189.746628 387.006134,198.941223 
z"/>
</svg>